M48
METRIC,TZ
T1C0.400
T2C1.000
T3C3.000
%
G90
G05
T1
X101257Y-61074
X112073Y-56851
X113043Y-54597
X121260Y-52616
X147573Y-55322
T2
X155270Y-51841
X155270Y-54381
X155270Y-56921
X155270Y-59461
X100889Y-45458
X100889Y-47460
X100889Y-49461
X105893Y-45458
X105893Y-47460
X105893Y-49461
X161158Y-59360
X161163Y-51735
X161163Y-54275
X161163Y-56830
X101816Y-54305
X101816Y-56337
T3
X111608Y-46901
X111608Y-64453
T0
M30
