G04 #@! TF.GenerationSoftware,KiCad,Pcbnew,5.0.2+dfsg1-1~bpo9+1*
G04 #@! TF.CreationDate,2020-02-22T15:05:15+00:00*
G04 #@! TF.ProjectId,tiny_powerbank_alyzer,74696e79-5f70-46f7-9765-7262616e6b5f,rev?*
G04 #@! TF.SameCoordinates,Original*
G04 #@! TF.FileFunction,Legend,Bot*
G04 #@! TF.FilePolarity,Positive*
%FSLAX46Y46*%
G04 Gerber Fmt 4.6, Leading zero omitted, Abs format (unit mm)*
G04 Created by KiCad (PCBNEW 5.0.2+dfsg1-1~bpo9+1) date Sat 22 Feb 2020 15:05:15 GMT*
%MOMM*%
%LPD*%
G01*
G04 APERTURE LIST*
%ADD10C,0.300000*%
G04 APERTURE END LIST*
D10*
X149145508Y-64921937D02*
X149645508Y-64921937D01*
X149645508Y-65707651D02*
X149645508Y-64207651D01*
X148931222Y-64207651D01*
X147716937Y-65707651D02*
X147716937Y-64921937D01*
X147788365Y-64779080D01*
X147931222Y-64707651D01*
X148216937Y-64707651D01*
X148359794Y-64779080D01*
X147716937Y-65636222D02*
X147859794Y-65707651D01*
X148216937Y-65707651D01*
X148359794Y-65636222D01*
X148431222Y-65493365D01*
X148431222Y-65350508D01*
X148359794Y-65207651D01*
X148216937Y-65136222D01*
X147859794Y-65136222D01*
X147716937Y-65064794D01*
X146359794Y-65636222D02*
X146502651Y-65707651D01*
X146788365Y-65707651D01*
X146931222Y-65636222D01*
X147002651Y-65564794D01*
X147074080Y-65421937D01*
X147074080Y-64993365D01*
X147002651Y-64850508D01*
X146931222Y-64779080D01*
X146788365Y-64707651D01*
X146502651Y-64707651D01*
X146359794Y-64779080D01*
X145145508Y-65636222D02*
X145288365Y-65707651D01*
X145574080Y-65707651D01*
X145716937Y-65636222D01*
X145788365Y-65493365D01*
X145788365Y-64921937D01*
X145716937Y-64779080D01*
X145574080Y-64707651D01*
X145288365Y-64707651D01*
X145145508Y-64779080D01*
X145074080Y-64921937D01*
X145074080Y-65064794D01*
X145788365Y-65207651D01*
X144216937Y-65707651D02*
X144359794Y-65636222D01*
X144431222Y-65493365D01*
X144431222Y-64207651D01*
X143074080Y-65636222D02*
X143216937Y-65707651D01*
X143502651Y-65707651D01*
X143645508Y-65636222D01*
X143716937Y-65493365D01*
X143716937Y-64921937D01*
X143645508Y-64779080D01*
X143502651Y-64707651D01*
X143216937Y-64707651D01*
X143074080Y-64779080D01*
X143002651Y-64921937D01*
X143002651Y-65064794D01*
X143716937Y-65207651D01*
X142431222Y-65636222D02*
X142288365Y-65707651D01*
X142002651Y-65707651D01*
X141859794Y-65636222D01*
X141788365Y-65493365D01*
X141788365Y-65421937D01*
X141859794Y-65279080D01*
X142002651Y-65207651D01*
X142216937Y-65207651D01*
X142359794Y-65136222D01*
X142431222Y-64993365D01*
X142431222Y-64921937D01*
X142359794Y-64779080D01*
X142216937Y-64707651D01*
X142002651Y-64707651D01*
X141859794Y-64779080D01*
X141216937Y-65636222D02*
X141074080Y-65707651D01*
X140788365Y-65707651D01*
X140645508Y-65636222D01*
X140574080Y-65493365D01*
X140574080Y-65421937D01*
X140645508Y-65279080D01*
X140788365Y-65207651D01*
X141002651Y-65207651D01*
X141145508Y-65136222D01*
X141216937Y-64993365D01*
X141216937Y-64921937D01*
X141145508Y-64779080D01*
X141002651Y-64707651D01*
X140788365Y-64707651D01*
X140645508Y-64779080D01*
X140145508Y-64707651D02*
X139574080Y-64707651D01*
X139931222Y-64207651D02*
X139931222Y-65493365D01*
X139859794Y-65636222D01*
X139716937Y-65707651D01*
X139574080Y-65707651D01*
X138502651Y-65636222D02*
X138645508Y-65707651D01*
X138931222Y-65707651D01*
X139074080Y-65636222D01*
X139145508Y-65493365D01*
X139145508Y-64921937D01*
X139074080Y-64779080D01*
X138931222Y-64707651D01*
X138645508Y-64707651D01*
X138502651Y-64779080D01*
X138431222Y-64921937D01*
X138431222Y-65064794D01*
X139145508Y-65207651D01*
X137145508Y-65636222D02*
X137288365Y-65707651D01*
X137574080Y-65707651D01*
X137716937Y-65636222D01*
X137788365Y-65564794D01*
X137859794Y-65421937D01*
X137859794Y-64993365D01*
X137788365Y-64850508D01*
X137716937Y-64779080D01*
X137574080Y-64707651D01*
X137288365Y-64707651D01*
X137145508Y-64779080D01*
X136502651Y-65707651D02*
X136502651Y-64207651D01*
X135859794Y-65707651D02*
X135859794Y-64921937D01*
X135931222Y-64779080D01*
X136074080Y-64707651D01*
X136288365Y-64707651D01*
X136431222Y-64779080D01*
X136502651Y-64850508D01*
X134074079Y-64350508D02*
X134002651Y-64279080D01*
X133859794Y-64207651D01*
X133502651Y-64207651D01*
X133359794Y-64279080D01*
X133288365Y-64350508D01*
X133216937Y-64493365D01*
X133216937Y-64636222D01*
X133288365Y-64850508D01*
X134145508Y-65707651D01*
X133216937Y-65707651D01*
X132288365Y-64207651D02*
X132145508Y-64207651D01*
X132002651Y-64279080D01*
X131931222Y-64350508D01*
X131859794Y-64493365D01*
X131788365Y-64779080D01*
X131788365Y-65136222D01*
X131859794Y-65421937D01*
X131931222Y-65564794D01*
X132002651Y-65636222D01*
X132145508Y-65707651D01*
X132288365Y-65707651D01*
X132431222Y-65636222D01*
X132502651Y-65564794D01*
X132574079Y-65421937D01*
X132645508Y-65136222D01*
X132645508Y-64779080D01*
X132574079Y-64493365D01*
X132502651Y-64350508D01*
X132431222Y-64279080D01*
X132288365Y-64207651D01*
X131216937Y-64350508D02*
X131145508Y-64279080D01*
X131002651Y-64207651D01*
X130645508Y-64207651D01*
X130502651Y-64279080D01*
X130431222Y-64350508D01*
X130359794Y-64493365D01*
X130359794Y-64636222D01*
X130431222Y-64850508D01*
X131288365Y-65707651D01*
X130359794Y-65707651D01*
X129431222Y-64207651D02*
X129288365Y-64207651D01*
X129145508Y-64279080D01*
X129074079Y-64350508D01*
X129002651Y-64493365D01*
X128931222Y-64779080D01*
X128931222Y-65136222D01*
X129002651Y-65421937D01*
X129074079Y-65564794D01*
X129145508Y-65636222D01*
X129288365Y-65707651D01*
X129431222Y-65707651D01*
X129574079Y-65636222D01*
X129645508Y-65564794D01*
X129716937Y-65421937D01*
X129788365Y-65136222D01*
X129788365Y-64779080D01*
X129716937Y-64493365D01*
X129645508Y-64350508D01*
X129574079Y-64279080D01*
X129431222Y-64207651D01*
X143703714Y-45733851D02*
X143132285Y-45733851D01*
X143489428Y-45233851D02*
X143489428Y-46519565D01*
X143418000Y-46662422D01*
X143275142Y-46733851D01*
X143132285Y-46733851D01*
X142632285Y-46733851D02*
X142632285Y-45733851D01*
X142632285Y-45233851D02*
X142703714Y-45305280D01*
X142632285Y-45376708D01*
X142560857Y-45305280D01*
X142632285Y-45233851D01*
X142632285Y-45376708D01*
X141918000Y-45733851D02*
X141918000Y-46733851D01*
X141918000Y-45876708D02*
X141846571Y-45805280D01*
X141703714Y-45733851D01*
X141489428Y-45733851D01*
X141346571Y-45805280D01*
X141275142Y-45948137D01*
X141275142Y-46733851D01*
X140703714Y-45733851D02*
X140346571Y-46733851D01*
X139989428Y-45733851D02*
X140346571Y-46733851D01*
X140489428Y-47090994D01*
X140560857Y-47162422D01*
X140703714Y-47233851D01*
X139775142Y-46876708D02*
X138632285Y-46876708D01*
X138275142Y-46733851D02*
X138275142Y-45233851D01*
X138275142Y-45805280D02*
X138132285Y-45733851D01*
X137846571Y-45733851D01*
X137703714Y-45805280D01*
X137632285Y-45876708D01*
X137560857Y-46019565D01*
X137560857Y-46448137D01*
X137632285Y-46590994D01*
X137703714Y-46662422D01*
X137846571Y-46733851D01*
X138132285Y-46733851D01*
X138275142Y-46662422D01*
X136918000Y-46733851D02*
X136918000Y-45733851D01*
X136918000Y-46019565D02*
X136846571Y-45876708D01*
X136775142Y-45805280D01*
X136632285Y-45733851D01*
X136489428Y-45733851D01*
X135418000Y-46662422D02*
X135560857Y-46733851D01*
X135846571Y-46733851D01*
X135989428Y-46662422D01*
X136060857Y-46519565D01*
X136060857Y-45948137D01*
X135989428Y-45805280D01*
X135846571Y-45733851D01*
X135560857Y-45733851D01*
X135418000Y-45805280D01*
X135346571Y-45948137D01*
X135346571Y-46090994D01*
X136060857Y-46233851D01*
X134060857Y-46733851D02*
X134060857Y-45948137D01*
X134132285Y-45805280D01*
X134275142Y-45733851D01*
X134560857Y-45733851D01*
X134703714Y-45805280D01*
X134060857Y-46662422D02*
X134203714Y-46733851D01*
X134560857Y-46733851D01*
X134703714Y-46662422D01*
X134775142Y-46519565D01*
X134775142Y-46376708D01*
X134703714Y-46233851D01*
X134560857Y-46162422D01*
X134203714Y-46162422D01*
X134060857Y-46090994D01*
X133560857Y-45733851D02*
X132989428Y-45733851D01*
X133346571Y-45233851D02*
X133346571Y-46519565D01*
X133275142Y-46662422D01*
X133132285Y-46733851D01*
X132989428Y-46733851D01*
X132489428Y-46733851D02*
X132489428Y-45233851D01*
X131846571Y-46733851D02*
X131846571Y-45948137D01*
X131918000Y-45805280D01*
X132060857Y-45733851D01*
X132275142Y-45733851D01*
X132418000Y-45805280D01*
X132489428Y-45876708D01*
M02*
