G04 #@! TF.GenerationSoftware,KiCad,Pcbnew,5.0.2+dfsg1-1~bpo9+1*
G04 #@! TF.CreationDate,2020-02-22T15:05:15+00:00*
G04 #@! TF.ProjectId,tiny_powerbank_alyzer,74696e79-5f70-46f7-9765-7262616e6b5f,rev?*
G04 #@! TF.SameCoordinates,Original*
G04 #@! TF.FileFunction,Copper,L1,Top*
G04 #@! TF.FilePolarity,Positive*
%FSLAX46Y46*%
G04 Gerber Fmt 4.6, Leading zero omitted, Abs format (unit mm)*
G04 Created by KiCad (PCBNEW 5.0.2+dfsg1-1~bpo9+1) date Sat 22 Feb 2020 15:05:15 GMT*
%MOMM*%
%LPD*%
G01*
G04 APERTURE LIST*
G04 #@! TA.AperFunction,SMDPad,CuDef*
%ADD10R,1.524000X1.524000*%
G04 #@! TD*
G04 #@! TA.AperFunction,SMDPad,CuDef*
%ADD11R,0.650000X1.700000*%
G04 #@! TD*
G04 #@! TA.AperFunction,ComponentPad*
%ADD12C,1.600000*%
G04 #@! TD*
G04 #@! TA.AperFunction,ComponentPad*
%ADD13C,3.500000*%
G04 #@! TD*
G04 #@! TA.AperFunction,ViaPad*
%ADD14C,0.800000*%
G04 #@! TD*
G04 #@! TA.AperFunction,Conductor*
%ADD15C,0.250000*%
G04 #@! TD*
G04 APERTURE END LIST*
D10*
G04 #@! TO.P,SW1,1*
G04 #@! TO.N,Net-(SW1-Pad1)*
X99047300Y-63601600D03*
G04 #@! TO.P,SW1,2*
G04 #@! TO.N,Net-(SW1-Pad2)*
X106667300Y-63601600D03*
G04 #@! TD*
D11*
G04 #@! TO.P,U3,1*
G04 #@! TO.N,Net-(U3-Pad1)*
X109270800Y-59237900D03*
G04 #@! TO.P,U3,2*
G04 #@! TO.N,Net-(U2-Pad4)*
X110540800Y-59237900D03*
G04 #@! TO.P,U3,3*
G04 #@! TO.N,Net-(U2-Pad3)*
X111810800Y-59237900D03*
G04 #@! TO.P,U3,4*
G04 #@! TO.N,Net-(SW1-Pad2)*
X113080800Y-59237900D03*
G04 #@! TO.P,U3,5*
G04 #@! TO.N,Net-(SW1-Pad1)*
X113080800Y-51937900D03*
G04 #@! TO.P,U3,6*
G04 #@! TO.N,Net-(U3-Pad6)*
X111810800Y-51937900D03*
G04 #@! TO.P,U3,7*
G04 #@! TO.N,Net-(U3-Pad7)*
X110540800Y-51937900D03*
G04 #@! TO.P,U3,8*
G04 #@! TO.N,Net-(SW2-Pad1)*
X109270800Y-51937900D03*
G04 #@! TD*
D12*
G04 #@! TO.P,U1,1*
G04 #@! TO.N,Net-(SW1-Pad2)*
X101815900Y-56337200D03*
G04 #@! TO.P,U1,2*
G04 #@! TO.N,Net-(SW2-Pad2)*
X101815900Y-54305200D03*
G04 #@! TD*
G04 #@! TO.P,U2,1*
G04 #@! TO.N,Net-(SW1-Pad2)*
X155270200Y-59461400D03*
G04 #@! TO.P,U2,2*
G04 #@! TO.N,Net-(SW2-Pad1)*
X155270200Y-56921400D03*
G04 #@! TO.P,U2,3*
G04 #@! TO.N,Net-(U2-Pad3)*
X155270200Y-54381400D03*
G04 #@! TO.P,U2,4*
G04 #@! TO.N,Net-(U2-Pad4)*
X155270200Y-51841400D03*
G04 #@! TD*
G04 #@! TO.P,U4,2*
G04 #@! TO.N,Net-(SW1-Pad2)*
X161163000Y-54274720D03*
G04 #@! TO.P,U4,3*
G04 #@! TO.N,Net-(U4-Pad3)*
X161163000Y-56829960D03*
G04 #@! TO.P,U4,4*
G04 #@! TO.N,Net-(U3-Pad7)*
X161157920Y-59359800D03*
G04 #@! TO.P,U4,1*
G04 #@! TO.N,Net-(SW2-Pad1)*
X161163000Y-51734720D03*
G04 #@! TD*
D13*
G04 #@! TO.P,U5,1*
G04 #@! TO.N,Net-(U5-Pad1)*
X111607600Y-46901100D03*
G04 #@! TD*
G04 #@! TO.P,U6,1*
G04 #@! TO.N,Net-(U6-Pad1)*
X111607600Y-64452500D03*
G04 #@! TD*
D12*
G04 #@! TO.P,SW2,4*
G04 #@! TO.N,N/C*
X105892600Y-49461420D03*
G04 #@! TO.P,SW2,5*
X105892600Y-47459900D03*
G04 #@! TO.P,SW2,6*
X105892600Y-45458380D03*
G04 #@! TO.P,SW2,1*
G04 #@! TO.N,Net-(SW2-Pad1)*
X100888800Y-49461420D03*
G04 #@! TO.P,SW2,2*
G04 #@! TO.N,Net-(SW2-Pad2)*
X100888800Y-47459900D03*
G04 #@! TO.P,SW2,3*
G04 #@! TO.N,Net-(SW2-Pad3)*
X100888800Y-45458380D03*
G04 #@! TD*
D14*
G04 #@! TO.N,Net-(SW1-Pad1)*
X101257100Y-61074300D03*
X113042700Y-54597300D03*
G04 #@! TO.N,Net-(U2-Pad4)*
X121259600Y-52616100D03*
X112073043Y-56850812D03*
G04 #@! TO.N,Net-(U3-Pad7)*
X147572899Y-55322301D03*
G04 #@! TD*
D15*
G04 #@! TO.N,Net-(SW1-Pad1)*
X100562600Y-61074300D02*
X101257100Y-61074300D01*
X99047300Y-62589600D02*
X100562600Y-61074300D01*
X99047300Y-63601600D02*
X99047300Y-62589600D01*
X113042700Y-51976000D02*
X113080800Y-51937900D01*
X113042700Y-54597300D02*
X113042700Y-51976000D01*
G04 #@! TO.N,Net-(SW1-Pad2)*
X102615899Y-57137199D02*
X103517599Y-57137199D01*
X101815900Y-56337200D02*
X102615899Y-57137199D01*
X103517599Y-57137199D02*
X107391200Y-61010800D01*
X113080800Y-60642500D02*
X113080800Y-59237900D01*
X112712500Y-61010800D02*
X113080800Y-60642500D01*
X152589430Y-61010800D02*
X112712500Y-61010800D01*
X154138830Y-59461400D02*
X152589430Y-61010800D01*
X155270200Y-59461400D02*
X154138830Y-59461400D01*
X110270100Y-61010800D02*
X110337600Y-61010800D01*
X107679300Y-63601600D02*
X110270100Y-61010800D01*
X106667300Y-63601600D02*
X107679300Y-63601600D01*
X107391200Y-61010800D02*
X110337600Y-61010800D01*
X110337600Y-61010800D02*
X112712500Y-61010800D01*
X155976320Y-59461400D02*
X155270200Y-59461400D01*
X161163000Y-54274720D02*
X155976320Y-59461400D01*
G04 #@! TO.N,Net-(U2-Pad4)*
X122034300Y-51841400D02*
X121259600Y-52616100D01*
X155270200Y-51841400D02*
X122034300Y-51841400D01*
X110540800Y-58712900D02*
X110540800Y-59237900D01*
X111673044Y-57580656D02*
X110540800Y-58712900D01*
X111673044Y-57250811D02*
X111673044Y-57580656D01*
X112073043Y-56850812D02*
X111673044Y-57250811D01*
G04 #@! TO.N,Net-(U3-Pad7)*
X110540800Y-51937900D02*
X110540800Y-54381400D01*
X111481701Y-55322301D02*
X147572899Y-55322301D01*
X110540800Y-54381400D02*
X111481701Y-55322301D01*
G04 #@! TO.N,Net-(U2-Pad3)*
X111810800Y-58137900D02*
X112570100Y-57378600D01*
X111810800Y-59237900D02*
X111810800Y-58137900D01*
X112570100Y-57378600D02*
X148437600Y-57378600D01*
X151434800Y-54381400D02*
X155270200Y-54381400D01*
X148437600Y-57378600D02*
X151434800Y-54381400D01*
G04 #@! TO.N,Net-(SW2-Pad1)*
X100914200Y-49474120D02*
X103093520Y-49474120D01*
X103093520Y-49474120D02*
X105557300Y-51937900D01*
X155270200Y-56921400D02*
X157505400Y-54686200D01*
X157505400Y-54686200D02*
X157505400Y-51447700D01*
X157505400Y-51447700D02*
X156095700Y-50038000D01*
X108783100Y-50038000D02*
X106883200Y-51937900D01*
X106883200Y-51937900D02*
X109270800Y-51937900D01*
X105557300Y-51937900D02*
X106883200Y-51937900D01*
X158334910Y-50038000D02*
X155943300Y-50038000D01*
X160031630Y-51734720D02*
X158334910Y-50038000D01*
X161163000Y-51734720D02*
X160031630Y-51734720D01*
X156095700Y-50038000D02*
X155943300Y-50038000D01*
X155943300Y-50038000D02*
X108783100Y-50038000D01*
G04 #@! TO.N,Net-(SW2-Pad2)*
X101815900Y-54305200D02*
X99085400Y-51574700D01*
X99085400Y-49301400D02*
X100914200Y-47472600D01*
X99085400Y-51574700D02*
X99085400Y-49301400D01*
G04 #@! TD*
M02*
